<svg width="300" height="84" viewBox="0 0 300 84" fill="none" xmlns="http://www.w3.org/2000/svg">
<path d="M72.2306 46.166C72.2306 65.7471 56.4954 81.5997 37.1108 81.5997C17.7263 81.5997 1.991 65.7471 1.991 46.166C1.991 26.5849 17.7263 10.7324 37.1108 10.7324C56.4954 10.7324 72.2306 26.5849 72.2306 46.166Z" stroke="white" stroke-width="2.87934"/>
<path d="M89.2146 44.9775V25.3834H101.273V28.6624H93.1282V33.7658H100.083V37.0447H93.1282V44.9775H89.2146ZM111.69 44.9775V25.3834H115.603V44.9775H111.69ZM131.313 44.9775V28.6624H125.812V25.3834H140.779V28.6624H135.226V44.9775H131.313ZM150.96 44.9775V25.3834H154.952L160.638 35.8283L162.594 40.0592H162.727C162.541 38.0231 162.224 35.4317 162.224 33.2105V25.3834H165.926V44.9775H161.96L156.301 34.5062L154.318 30.3018H154.186C154.371 32.4172 154.662 34.8764 154.662 37.124V44.9775H150.96ZM177.773 44.9775V25.3834H189.778V28.6624H181.687V33.1841H188.562V36.463H181.687V41.6986H190.069V44.9775H177.773ZM206.893 45.3477C204.275 45.3477 201.657 44.3165 199.753 42.4919L202.001 39.7948C203.402 41.0905 205.253 41.9631 206.972 41.9631C209.008 41.9631 210.092 41.0905 210.092 39.7154C210.092 38.2611 208.902 37.8115 207.157 37.0712L204.539 35.9606C202.556 35.1408 200.573 33.5543 200.573 30.6984C200.573 27.4989 203.376 25.0397 207.342 25.0397C209.616 25.0397 211.89 25.9387 213.477 27.5518L211.494 30.0109C210.251 28.9797 208.955 28.3979 207.342 28.3979C205.624 28.3979 204.539 29.1648 204.539 30.4605C204.539 31.8619 205.914 32.3643 207.58 33.0254L210.145 34.1096C212.525 35.0879 214.085 36.5952 214.085 39.4246C214.085 42.6241 211.415 45.3477 206.893 45.3477ZM229.91 45.3477C227.293 45.3477 224.675 44.3165 222.771 42.4919L225.018 39.7948C226.42 41.0905 228.271 41.9631 229.99 41.9631C232.026 41.9631 233.11 41.0905 233.11 39.7154C233.11 38.2611 231.92 37.8115 230.175 37.0712L227.557 35.9606C225.574 35.1408 223.591 33.5543 223.591 30.6984C223.591 27.4989 226.394 25.0397 230.36 25.0397C232.634 25.0397 234.908 25.9387 236.495 27.5518L234.511 30.0109C233.269 28.9797 231.973 28.3979 230.36 28.3979C228.641 28.3979 227.557 29.1648 227.557 30.4605C227.557 31.8619 228.932 32.3643 230.598 33.0254L233.163 34.1096C235.543 35.0879 237.103 36.5952 237.103 39.4246C237.103 42.6241 234.432 45.3477 229.91 45.3477ZM89.6113 79.9775V60.7008H94.609C98.972 60.7008 101.643 62.1287 101.643 66.1215C101.643 69.9822 98.9985 71.8332 94.7147 71.8332H91.1978V79.9775H89.6113ZM91.1978 70.511H94.3974C98.2052 70.511 100.03 69.2153 100.03 66.1215C100.03 63.0013 98.1259 62.0229 94.2917 62.0229H91.1978V70.511ZM112.81 79.9775V60.7008H118.442C122.276 60.7008 124.868 62.1022 124.868 65.8571C124.868 68.9245 122.99 70.6961 120.055 71.1457L125.264 79.9775H123.466L118.336 71.2779H114.396V79.9775H112.81ZM114.396 69.9557H118.072C121.404 69.9557 123.255 68.6336 123.255 65.8571C123.255 63.0542 121.404 62.0229 118.072 62.0229H114.396V69.9557ZM142.674 80.3213C138.02 80.3213 134.688 76.4078 134.688 70.273C134.688 64.1648 138.02 60.357 142.674 60.357C147.381 60.357 150.686 64.1648 150.686 70.273C150.686 76.4078 147.381 80.3213 142.674 80.3213ZM142.674 78.8934C146.508 78.8934 149.047 75.5087 149.047 70.273C149.047 65.0374 146.508 61.7849 142.674 61.7849C138.866 61.7849 136.354 65.0374 136.354 70.273C136.354 75.5087 138.866 78.8934 142.674 78.8934ZM165.552 79.9775V62.0493H159.496V60.7008H173.246V62.0493H167.165V79.9775H165.552ZM190.026 80.3213C185.372 80.3213 182.041 76.4078 182.041 70.273C182.041 64.1648 185.372 60.357 190.026 60.357C194.733 60.357 198.038 64.1648 198.038 70.273C198.038 76.4078 194.733 80.3213 190.026 80.3213ZM190.026 78.8934C193.86 78.8934 196.399 75.5087 196.399 70.273C196.399 65.0374 193.86 61.7849 190.026 61.7849C186.218 61.7849 183.706 65.0374 183.706 70.273C183.706 75.5087 186.218 78.8934 190.026 78.8934ZM216.379 80.3213C211.619 80.3213 208.234 76.4871 208.234 70.3259C208.234 64.1648 211.645 60.357 216.537 60.357C218.811 60.357 220.583 61.4676 221.614 62.684L220.715 63.7152C219.684 62.5518 218.309 61.7849 216.537 61.7849C212.465 61.7849 209.9 65.0638 209.9 70.273C209.9 75.5352 212.412 78.8934 216.458 78.8934C218.415 78.8934 219.869 78.0737 221.244 76.5664L222.143 77.5712C220.662 79.29 218.864 80.3213 216.379 80.3213ZM239.083 80.3213C234.429 80.3213 231.097 76.4078 231.097 70.273C231.097 64.1648 234.429 60.357 239.083 60.357C243.79 60.357 247.095 64.1648 247.095 70.273C247.095 76.4078 243.79 80.3213 239.083 80.3213ZM239.083 78.8934C242.917 78.8934 245.455 75.5087 245.455 70.273C245.455 65.0374 242.917 61.7849 239.083 61.7849C235.275 61.7849 232.763 65.0374 232.763 70.273C232.763 75.5087 235.275 78.8934 239.083 78.8934ZM258.507 79.9775V60.7008H260.094V78.6025H268.873V79.9775H258.507Z" fill="white"/>
<path d="M89.9118 20V9.81823H91.2019V14.0907H95.946V9.81823H97.2222V20H95.946V15.2004H91.2019V20H89.9118ZM103.68 20V9.81823H104.97V18.9041H109.409V20H103.68ZM115.154 20V10.9141H112.075V9.81823H119.524V10.9141H116.444V20H115.154ZM125.012 20V9.81823H127.925C130.2 9.81823 131.726 10.595 131.726 12.8145C131.726 14.9646 130.214 15.9634 127.98 15.9634H126.302V20H125.012ZM126.302 14.923H127.814C129.603 14.923 130.45 14.271 130.45 12.8145C130.45 11.3441 129.548 10.8725 127.758 10.8725H126.302V14.923Z" fill="white"/>
<path d="M139.408 18.3909V15.353H136.592V14.4097H139.408V11.3719H140.421V14.4097H143.237V15.353H140.421V18.3909H139.408Z" fill="#FF8B61"/>
<path d="M88.5891 52.7334H269.987V55.5809H88.5891V52.7334Z" fill="url(#paint0_linear_1702_125)"/>
<path d="M8.89211 62.7399L36.8308 13.9333L64.7695 62.7399L8.89211 62.7399Z" stroke="white" stroke-width="2.87934"/>
<path d="M54.2965 48.4855L36.8309 78.9966L19.3652 48.4855L54.2965 48.4855Z" stroke="white" stroke-width="2.87934"/>
<defs>
<linearGradient id="paint0_linear_1702_125" x1="269.994" y1="54.1089" x2="88.5397" y2="54.1089" gradientUnits="userSpaceOnUse">
<stop stop-color="white" stop-opacity="0"/>
<stop offset="1" stop-color="#FF8B61"/>
</linearGradient>
</defs>
</svg>
