<svg width="442" height="123" xmlns="http://www.w3.org/2000/svg" xmlns:xlink="http://www.w3.org/1999/xlink"><defs><path id="a" d="M0 .168h441.892v117.463H0z"/><path id="c" d="M0 .224h441.894V93.2H0z"/><path id="e" d="M0 .693h441.894V102H0z"/></defs><g fill="none" fill-rule="evenodd"><g><mask id="b" fill="#fff"><use xlink:href="#a"/></mask><path d="M190.776 117.63c-14.817 0-16.9-32.963-18.911-64.842-1.474-23.354-3.146-49.824-10.585-49.824-8.026 0-10.586 21.512-12.845 40.49-2.604 21.886-5.067 42.557-15.397 42.557-7.963 0-10.835-13.676-13.876-28.157-2.552-12.157-5.446-25.938-11.143-25.938-6.636 0-9.822 18.513-12.63 34.845-3.627 21.067-7.05 40.966-17.777 40.966-9.977 0-13.078-15.352-16.079-30.197-2.544-12.57-5.172-25.568-11.471-25.568h-.05c-5.77.063-9.061 10.88-12.241 21.34-3.53 11.601-7.178 23.597-15.216 23.676h-.092c-7.245 0-9.212-8.537-11.117-16.797C9.499 72.176 7.592 63.894 1.29 63.412a1.395 1.395 0 01-1.287-1.498 1.384 1.384 0 011.5-1.288c8.348.641 10.588 10.355 12.567 18.929 1.732 7.522 3.374 14.629 8.403 14.629h.054c5.99-.059 9.337-11.058 12.569-21.694 3.637-11.95 7.069-23.237 14.887-23.322h.089c8.577 0 11.306 13.51 14.2 27.808 2.775 13.745 5.651 27.955 13.34 27.955 8.372 0 11.905-20.53 15.022-38.644C96.066 46.344 99.03 29.12 108.02 29.12c7.965 0 10.837 13.68 13.878 28.16 2.552 12.158 5.446 25.937 11.141 25.937 7.85 0 10.384-21.3 12.624-40.09 2.626-22.091 5.11-42.96 15.618-42.96 10.063 0 11.596 24.305 13.372 52.446 1.843 29.166 3.93 62.223 16.124 62.223 9.979 0 12.313-21.847 14.569-42.979 2.433-22.762 4.73-44.258 16.609-44.258 10.458 0 12.04 15.618 13.57 30.72 1.317 12.99 2.678 26.423 9.526 26.423 4.33 0 6.62-6.104 9.046-12.568 2.786-7.422 5.668-15.097 12.507-15.097 5.877 0 8.696 9.226 11.959 19.903 3.188 10.425 6.797 22.238 13.062 22.238 8.489 0 11.834-22.276 14.784-41.934 3.352-22.318 6.516-43.4 17.006-43.4 9.812 0 12.432 19.883 15.205 40.935 2.345 17.792 5.003 37.959 12.13 37.959 5.758 0 9.242-13.12 12.316-24.694 3.657-13.767 7.109-26.77 15.02-26.77 7.502 0 10.988 12.634 15.024 27.264 3.927 14.232 8.378 30.364 16.548 30.64.06.002.121.004.182.004 5.343 0 8.166-8.028 11.155-16.525 3.836-10.904 8.184-23.263 19.503-23.263.773 0 1.395.626 1.395 1.398 0 .771-.622 1.396-1.395 1.396-9.34 0-13.167 10.878-16.869 21.398-3.371 9.585-6.614 18.664-14.065 18.384-10.221-.348-14.759-16.789-19.147-32.687-3.42-12.4-6.954-25.215-12.331-25.215-5.762 0-9.246 13.12-12.32 24.695-3.657 13.767-7.109 26.769-15.016 26.769-9.578 0-12.162-19.617-14.899-40.389-2.378-18.048-5.073-38.505-12.436-38.505-8.084 0-11.354 21.793-14.242 41.023-3.422 22.788-6.654 44.311-17.548 44.311-8.334 0-12.096-12.308-15.733-24.214-2.57-8.402-5.48-17.925-9.288-17.925-4.904 0-7.44 6.753-9.89 13.284-2.653 7.068-5.398 14.379-11.663 14.379-9.373 0-10.797-14.055-12.306-28.934-1.405-13.87-2.857-28.21-10.79-28.21-9.367 0-11.637 21.232-13.83 41.763-2.497 23.387-4.858 45.476-17.348 45.476" fill="#68C2C3" mask="url(#b)"/></g><g transform="translate(0 14)"><mask id="d" fill="#fff"><use xlink:href="#c"/></mask><path d="M190.284 93.2c-13.058 0-15.418-25.209-17.702-49.589-1.87-19.95-3.8-40.582-11.375-40.582-7.927 0-10.32 16.07-12.63 31.615-2.577 17.325-5.012 33.691-15.17 33.691-7.766 0-11.118-11.038-14.358-21.71-2.946-9.697-5.991-19.726-11.687-19.726-7.097 0-11.058 15.624-14.555 29.409-3.794 14.966-7.379 29.103-15.4 29.103-9.818 0-12.477-11.985-15.05-23.577-2.226-10.045-4.332-19.531-10.541-19.531h-.05c-5.62.048-8.123 7.46-10.771 15.308-2.99 8.857-6.078 18.016-14.414 18.016-8.674 0-11.778-7.678-14.517-14.454C9.491 54.807 7.267 49.307 1.4 49.307h-.002a1.399 1.399 0 01-1.397-1.404 1.4 1.4 0 011.395-1.401H1.4c7.75 0 10.546 6.921 13.252 13.615 2.643 6.533 5.136 12.704 11.929 12.704 6.332 0 8.972-7.825 11.77-16.11 2.845-8.431 5.787-17.151 13.388-17.214h.085c8.44 0 10.891 11.044 13.261 21.726 2.333 10.512 4.741 21.382 12.322 21.382 5.848 0 9.485-14.339 12.694-26.989 4.11-16.212 7.995-31.522 17.261-31.522 7.764 0 11.117 11.038 14.358 21.712 2.946 9.695 5.993 19.721 11.686 19.721 7.75 0 10.119-15.91 12.406-31.297C148.416 16.74 150.875.224 161.207.224c10.118 0 11.989 19.984 14.156 43.126 2.064 22.052 4.406 47.043 14.921 47.043 10.432 0 13.502-19.176 16.213-36.096 2.664-16.64 5.181-32.357 14.478-32.505l.127-.002c7.498 0 9.34 10.664 11.296 21.949 1.955 11.303 3.977 22.988 11.352 22.988 4.316 0 6.558-4.95 8.926-10.195 2.634-5.821 5.621-12.423 12.307-12.423 5.736 0 8.668 7.856 11.772 16.174 3.273 8.766 6.652 17.828 12.875 17.828 8.39 0 11.524-16.657 14.553-32.766 3.319-17.659 6.459-34.338 16.764-34.338 9.643 0 12.24 15.743 14.992 32.41 2.404 14.568 4.89 29.631 11.934 29.631 5.726 0 8.985-9.8 12.138-19.277 3.466-10.42 7.051-21.196 14.79-21.196 7.819 0 10.894 11.53 14.149 23.735 2.837 10.637 5.77 21.637 11.443 21.8.03.003.06.003.093.003 3.006 0 5.42-4.272 8.464-9.667 5.512-9.763 13.063-23.138 31.547-23.138a1.4 1.4 0 011.397 1.404c0 .775-.624 1.402-1.397 1.402-16.857 0-23.654 12.041-29.116 21.716-3.492 6.185-6.26 11.09-10.877 11.09l-.194-.002c-7.751-.228-10.816-11.717-14.059-23.884-2.84-10.646-5.774-21.651-11.45-21.651-5.727 0-8.987 9.8-12.14 19.276-3.465 10.421-7.05 21.195-14.788 21.195-9.413 0-11.977-15.535-14.69-31.98-2.44-14.776-4.964-30.06-12.236-30.06-7.991 0-11.055 16.296-14.02 32.05-3.39 18.027-6.59 35.054-17.297 35.054-8.158 0-12.053-10.439-15.491-19.65-2.634-7.056-5.353-14.354-9.156-14.354-4.887 0-7.256 5.237-9.761 10.781-2.632 5.82-5.355 11.84-11.472 11.84-9.725 0-11.952-12.87-14.105-25.317-1.67-9.646-3.398-19.622-8.564-19.622l-.062.002c-6.954.11-9.399 15.38-11.765 30.146-3.027 18.905-6.157 38.456-18.97 38.456" fill="#EE9E7F" mask="url(#d)"/></g><g transform="translate(0 21)"><mask id="f" fill="#fff"><use xlink:href="#e"/></mask><path d="M91.623 102c-9.728.002-13.093-13.244-16.35-26.053-2.753-10.837-5.602-22.044-11.906-22.044h-.046c-5.672.049-8.193 7.484-10.864 15.356-3.012 8.877-6.126 18.056-14.518 18.056-7.844 0-11.602-9.602-15.582-19.767-4.686-11.973-9.532-24.352-20.887-24.352h-.074c-.77 0-1.394-.623-1.396-1.395a1.398 1.398 0 011.39-1.406h.082c13.258 0 18.692 13.878 23.485 26.126 3.621 9.252 7.045 17.993 12.982 17.993 6.392 0 9.055-7.85 11.872-16.158 2.868-8.452 5.832-17.191 13.485-17.258h.081c8.465 0 11.445 11.734 14.605 24.158 2.99 11.77 6.086 23.94 13.657 23.94h.13c7.053-.13 10.354-16.774 13.268-31.454 3.386-17.07 6.586-33.194 15.735-33.194 7.816 0 10.96 10.4 14 20.455 2.742 9.076 5.578 18.464 11.326 18.464 7.838 0 10.764-17.811 13.594-35.037C162.878 19.024 165.889.693 176.275.693c10.19 0 12.232 21.698 14.597 46.822 2.265 24.05 4.835 51.312 15.443 51.312 10.47 0 12.522-17.451 14.506-34.33 1.875-15.943 3.645-31.002 13.06-31.152h.125c7.549 0 9.408 10.69 11.377 22.003 1.97 11.335 4.01 23.057 11.451 23.057 4.36 0 6.618-4.968 9.013-10.225 2.654-5.839 5.661-12.454 12.392-12.454 5.812 0 8.686 8.568 12.015 18.485 3.234 9.642 6.906 20.574 13.149 20.574 8.448 0 11.532-17.971 14.512-35.35 3.257-18.976 6.334-36.9 16.732-36.9 9.71 0 12.328 15.78 15.1 32.49 2.423 14.608 4.93 29.718 12.04 29.718 5.782 0 9.069-9.829 12.249-19.334 3.492-10.447 7.105-21.247 14.895-21.247 7.903 0 10.666 11.643 13.592 23.968 2.53 10.665 5.146 21.69 10.767 21.69 5.07 0 7.637-10.704 10.112-21.056 3.156-13.18 6.73-28.115 16.903-29.548.765-.119 1.468.427 1.577 1.193a1.402 1.402 0 01-1.19 1.582c-8.288 1.168-11.627 15.12-14.574 27.43-2.98 12.45-5.552 23.202-12.828 23.202-7.829 0-10.576-11.58-13.488-23.843-2.543-10.723-5.176-21.815-10.871-21.815-5.782 0-9.069 9.828-12.247 19.334-3.492 10.446-7.105 21.247-14.897 21.247-9.476 0-12.06-15.572-14.794-32.06-2.461-14.823-5.005-30.15-12.346-30.15-8.044 0-11.06 17.579-13.979 34.576-3.323 19.376-6.462 37.674-17.265 37.674-8.251 0-12.088-11.429-15.798-22.482-2.734-8.149-5.562-16.574-9.366-16.574-4.935 0-7.323 5.252-9.85 10.814-2.655 5.833-5.398 11.866-11.555 11.866-9.79 0-12.033-12.903-14.206-25.38-1.682-9.675-3.424-19.68-8.64-19.68h-.064c-6.97.11-8.674 14.633-10.328 28.677-2.126 18.095-4.326 36.804-17.281 36.804-13.151 0-15.73-27.378-18.225-53.851-1.953-20.759-4.168-44.284-11.815-44.284-8.016 0-11.103 18.802-13.828 35.389-3.156 19.226-6.139 37.385-16.35 37.385-7.82 0-10.961-10.398-14-20.455-2.743-9.076-5.58-18.462-11.325-18.462-6.857 0-10.12 16.437-12.996 30.936-3.421 17.248-6.654 33.538-15.954 33.71l-.2.001" fill="#BBE1E5" mask="url(#f)"/></g></g></svg>