<svg xmlns="http://www.w3.org/2000/svg" width="1327" height="384" viewBox="0 0 1327 384" fill="none"><g clip-path="url(#clip0_1328_2)"><path d="M620.386 16.9956H564.552V19.053H620.386V16.9956Z" fill="url(#paint0_linear_1328_2)"></path><path d="M619.835 19.0537L675.669 19.0537L675.669 16.9963L619.835 16.9963L619.835 19.0537Z" fill="url(#paint1_linear_1328_2)"></path><path d="M476.658 16.9138H493.874V8.87491C493.874 5.98892 493.698 4.14405 493.346 3.34032C492.934 2.66557 492.341 2.11894 491.634 1.76233L491.166 1.45975L490.914 1.31082H502.265C501.337 1.72288 500.563 2.41499 500.053 3.28912C499.766 3.74219 499.588 4.57696 499.519 5.79342C499.473 6.94782 499.44 7.95014 499.421 8.80042V9.40091L499.318 25.083V25.3344C499.318 25.3669 499.318 25.4321 499.318 25.5345C499.357 25.7995 499.375 26.0673 499.37 26.3352L499.318 29.7937C499.318 31.5625 499.68 32.9062 500.403 33.8248C501.013 34.4829 501.737 35.0254 502.541 35.426H490.586C491.036 35.352 491.463 35.1758 491.834 34.911C492.205 34.6462 492.509 34.3 492.724 33.8993C493.079 33.2365 493.342 32.5287 493.505 31.7953L493.809 30.6176L493.706 29.0163L493.734 28.8627L493.809 18.4685L476.541 18.394L476.593 29.9147C476.643 31.7766 476.869 32.9636 477.271 33.4756C478.016 34.218 478.845 34.8724 479.74 35.426H467.758C468.288 35.1132 468.8 34.7713 469.292 34.402C470.115 33.8015 470.644 32.7867 470.882 31.3717C470.982 31.1017 471.065 29.6153 471.13 26.9124L471.256 10.1038L471.284 9.82446C471.28 9.73247 471.271 9.6408 471.256 9.54984C471.223 9.32632 471.206 9.10081 471.205 8.87491L471.256 5.91911C471.256 4.4156 470.854 3.30774 470.05 2.58624C469.416 2.09498 468.752 1.6441 468.062 1.23633H480.016C479.408 1.52497 478.824 1.85955 478.267 2.23713C477.923 2.50799 477.644 2.85139 477.449 3.24258C477.009 3.8384 476.752 5.19294 476.668 7.29692L476.658 16.9138Z" fill="white"></path><path d="M513.471 27.7365L513.518 8.42356L513.546 8.25133L513.518 7.84637C513.418 5.72687 513.326 4.46697 513.242 4.06665C512.905 3.01466 512.024 2.14577 510.599 1.45996H521.599C520.271 2.22956 519.448 3.14035 519.13 4.19234C519.015 4.65782 518.898 6.436 518.779 9.52681V27.3874C518.829 30.1803 518.985 32.0096 519.247 32.8754C519.401 33.5423 519.773 34.1397 520.304 34.5744C520.622 34.8257 521.034 35.1097 521.539 35.4309H510.693C511.485 34.9894 512.172 34.381 512.704 33.6481C513.108 33.0106 513.326 32.2743 513.335 31.5209L513.433 28.3137L513.471 27.7365Z" fill="white"></path><path d="M537.727 2.86603L537.624 18.2921V18.469V18.6179C537.636 18.9639 537.772 19.2942 538.008 19.5489C538.554 19.9402 539.167 20.2289 539.818 20.4008C540.817 20.721 541.859 20.8905 542.909 20.9035C544.123 20.8895 545.309 20.5432 546.337 19.9027C547.721 19.0754 548.824 17.8546 549.504 16.3976C550.162 14.9666 550.499 13.4098 550.491 11.8359C550.491 8.73267 549.501 6.38664 547.521 4.79779C545.79 3.41065 543.525 2.7171 540.725 2.7171C540.033 2.7171 539.026 2.76828 537.704 2.87069L537.727 2.86603ZM529.874 35.4824C530.485 35.1672 531.011 34.712 531.409 34.1543C531.808 33.5966 532.067 32.9525 532.166 32.2752C532.381 31.0929 532.49 26.4179 532.494 18.2502C532.494 11.3208 532.402 7.12053 532.218 5.6496C531.999 3.96456 531.437 2.81174 530.529 2.1911C530.252 1.99827 529.958 1.8315 529.65 1.693H530.73C532.676 1.693 535.17 1.63404 538.214 1.51612C540.951 1.41992 542.697 1.37029 543.452 1.36719C546.726 1.36719 549.51 1.98783 551.805 3.22912C553.268 4.00192 554.462 5.19804 555.228 6.65972C555.961 8.02335 556.334 9.54959 556.313 11.0958C556.325 12.7951 555.919 14.4715 555.13 15.9787C554.338 17.4834 553.188 18.7729 551.781 19.7351C549.649 21.2246 546.83 21.9679 543.325 21.9648C541.428 21.9553 539.538 21.7462 537.685 21.341V28.2302C537.685 28.3139 537.746 29.096 537.863 30.5576C537.928 32.75 538.499 34.1651 539.574 34.8167C539.911 35.0029 540.318 35.2031 540.805 35.4172L540.131 35.4684L534.846 35.3706C534.375 35.3706 532.721 35.4033 529.884 35.4684" fill="white"></path><path d="M572.02 2.86603L571.917 18.2921V18.469L571.94 18.6179C571.949 18.9637 572.084 19.2947 572.319 19.5489C572.865 19.9402 573.479 20.2289 574.129 20.4008C575.13 20.7211 576.174 20.8905 577.225 20.9035C578.437 20.89 579.622 20.5437 580.649 19.9027C582.035 19.077 583.14 17.8558 583.82 16.3976C584.477 14.9663 584.812 13.4095 584.802 11.8359C584.802 8.73267 583.812 6.38664 581.832 4.79779C580.102 3.41065 577.837 2.7171 575.037 2.7171C574.351 2.7171 573.345 2.76828 572.02 2.87069V2.86603ZM564.191 35.4824C564.801 35.1676 565.327 34.7124 565.725 34.1545C566.122 33.5967 566.381 32.9524 566.478 32.2752C566.699 31.0929 566.81 26.4179 566.81 18.2502C566.81 11.3208 566.716 7.12053 566.529 5.6496C566.314 3.96456 565.748 2.81019 564.845 2.1911C564.567 1.99739 564.271 1.83057 563.961 1.693H565.047C566.992 1.693 569.487 1.63404 572.53 1.51612C575.261 1.41837 577.01 1.36719 577.763 1.36719C581.037 1.36719 583.823 1.98783 586.121 3.22912C587.584 4.00192 588.778 5.19804 589.545 6.65972C590.276 8.02377 590.647 9.54999 590.625 11.0958C590.639 12.7954 590.233 14.4723 589.442 15.9787C588.653 17.4843 587.504 18.7742 586.098 19.7351C583.965 21.2246 581.145 21.9679 577.637 21.9648C575.749 21.9537 573.868 21.7446 572.025 21.341V28.2302C572.025 28.3139 572.085 29.096 572.202 30.5576C572.268 32.75 572.838 34.1651 573.91 34.8167C574.251 35.0029 574.658 35.2031 575.144 35.4172L574.466 35.4684L569.181 35.3706C568.71 35.3706 567.058 35.4033 564.223 35.4684" fill="white"></path><path d="M679.439 3.26568L679.944 3.18653L680.622 10.7274L680.019 10.9275C679.279 9.64316 678.411 8.43615 677.428 7.32468C674.12 3.53255 670.721 1.63649 667.232 1.63649C665.115 1.62613 663.055 2.31361 661.372 3.59156C659.487 4.94945 658.035 6.81928 657.191 8.97716C656.074 11.834 655.519 14.8773 655.554 17.9424C655.554 22.6841 656.62 26.5755 658.753 29.6166C661.247 33.1574 664.502 34.9278 668.518 34.9278C672.091 34.9278 675.27 33.3576 678.055 30.2171C678.827 29.3622 679.503 28.4256 680.07 27.4242H680.496L679.743 32.6842C678.777 33.4204 677.719 34.0276 676.595 34.4902C673.548 35.7807 670.268 36.4365 666.956 36.4173C663.807 36.4457 660.707 35.6426 657.972 34.0899C654.982 32.401 652.617 29.7996 651.227 26.6702C650.051 24.074 649.449 21.256 649.464 18.4078C649.464 13.0765 651.235 8.68389 654.777 5.23001C658.113 1.93749 662.384 0.2928 667.587 0.295903C670.394 0.295903 672.675 0.7381 674.43 1.62252L677.704 3.25171C678.011 3.45187 678.351 3.59538 678.709 3.67531C678.996 3.64192 679.262 3.51025 679.462 3.3029" fill="white"></path><path d="M697.74 3.03968L697.539 17.4184V17.5208L697.567 17.6698C697.651 18.005 697.73 18.1958 697.819 18.247C698.086 18.382 699.222 18.4471 701.266 18.4471C704.185 18.4471 706.358 18.0127 707.786 17.1438C708.516 16.7142 709.136 16.1213 709.596 15.4122C710.495 14.0457 710.959 12.4416 710.929 10.8086C710.977 9.06582 710.446 7.35581 709.418 5.94428C707.909 3.9303 705.217 2.92019 701.341 2.91399C700.452 2.91399 699.252 2.95589 697.74 3.03968ZM708.16 18.7962L715.283 27.5892L715.611 27.9151C718.379 30.9873 719.999 32.7483 720.47 33.1983C721.39 34.0107 722.436 34.6707 723.566 35.1533C723.052 35.277 722.53 35.3687 722.004 35.4279C720.952 35.5652 719.894 35.6491 718.833 35.6793C717.205 35.7394 715.608 35.2251 714.324 34.227C713.4 33.4091 712.551 32.512 711.785 31.5458L703.609 21.8265L703.352 21.5007C702.966 20.9749 702.519 20.4967 702.019 20.0763C701.513 19.8487 700.965 19.7282 700.41 19.7226H700.209H700.134H697.618V29.5955C697.665 31.3969 697.885 32.6816 698.268 33.4496C698.812 34.326 699.611 35.0162 700.56 35.4279H689.111L689.461 35.2045C689.961 34.893 690.431 34.5362 690.864 34.1386C691.136 33.8482 691.358 33.5147 691.519 33.1518C691.792 32.4921 691.929 31.7844 691.921 31.071C692.006 29.4698 692.048 28.6179 692.048 28.5155L692.3 10.6317L692.324 10.5572L692.3 10.0917C692.23 7.17317 692.165 5.39967 692.095 4.78058C692.006 3.97719 691.693 3.21451 691.192 2.57885C690.68 2.13566 690.092 1.78728 689.457 1.55016C692.263 1.58739 694.176 1.60446 695.195 1.60135C696.332 1.60135 698.165 1.55945 700.681 1.47566C702.309 1.4105 703.508 1.37793 704.278 1.37793C707.805 1.37793 710.556 2.01252 712.533 3.28174C715.068 4.90162 716.335 7.13906 716.335 9.99402C716.326 11.8791 715.679 13.706 714.497 15.1794C713.219 16.8179 711.113 18.0282 708.179 18.8102" fill="white"></path><path d="M775.288 2.6927H770.705L770.078 2.6694C768.864 2.74429 767.672 3.02286 766.552 3.49332C765.124 4.03017 763.538 5.29163 761.795 7.27769H761.416L764.036 0.2396L764.414 0.137207C765.089 0.55736 765.86 0.799288 766.655 0.84009C769.121 0.989045 771.218 1.06351 772.945 1.06351H783.819C786.367 1.06351 788.624 0.996769 790.591 0.86333C793.187 0.700411 794.693 0.612008 795.095 0.612008L795.395 0.812134L792.677 8.00387H792.125C792.222 7.54458 792.273 7.07673 792.275 6.60743C792.275 5.25287 791.901 4.28 791.143 3.62367C790.208 2.86028 788.573 2.47704 786.237 2.47394H785.91L780.62 2.62287L780.672 27.3726V27.8986C780.672 29.97 780.812 31.4176 781.139 32.2322C781.365 32.8988 781.764 33.4944 782.294 33.9592C782.715 34.2804 783.309 34.6853 784.081 35.188C780.489 35.0577 778.409 34.991 777.842 34.9879C777.53 34.9879 775.625 35.0375 772.127 35.1368C772.617 34.872 773.086 34.5701 773.53 34.2338C774.198 33.6502 774.643 32.8541 774.788 31.9809C774.941 31.0127 775.059 28.5301 775.143 24.5332V24.2818L775.288 2.6927Z" fill="white"></path><path d="M801.509 35.2163C802.968 34.546 803.903 33.6771 804.315 32.6096C804.595 31.479 804.713 30.3146 804.666 29.151L804.918 17.8305C804.971 15.9127 804.996 14.192 804.993 12.6684C804.993 8.76451 804.851 6.15934 804.567 4.85288C804.483 4.29222 804.289 3.75357 803.995 3.2679C803.701 2.78224 803.314 2.35908 802.856 2.02271L801.92 1.44552C801.774 1.37142 801.632 1.2891 801.495 1.19886H802.248L813.977 1.37108C816.313 1.37108 820.122 1.25471 825.403 1.02197L826.133 7.71095L825.506 7.95762C825.041 6.94209 824.372 6.03144 823.542 5.28109C822.87 4.63801 822.127 4.07416 821.325 3.60071C820.767 3.25327 820.143 3.02357 819.492 2.92578L816.007 2.63252H815.834H815.759L810.269 2.70702L810.044 15.4845V15.6335C810.029 15.7523 810.051 15.8727 810.105 15.9796C810.159 16.0865 810.243 16.175 810.348 16.2339C810.577 16.2979 810.812 16.3323 811.05 16.3363H815.68L816.148 16.3596C817.37 16.4137 818.585 16.1455 819.669 15.5822C820.739 14.9963 821.581 14.0703 822.059 12.9523C822.162 12.7521 822.26 12.5426 822.363 12.3285L822.831 12.2029V21.978L822.2 22.2061C821.479 20.5024 820.591 19.2828 819.534 18.5473C818.561 18.0174 817.472 17.7345 816.363 17.7235L815.427 17.6723H810.063V28.1642C810.063 28.2154 810.063 28.3504 810.039 28.5692C809.964 29.703 810.1 30.841 810.442 31.9254C810.547 32.261 810.732 32.566 810.983 32.8142C811.233 33.0624 811.54 33.2462 811.878 33.3497C812.606 33.5502 813.362 33.6351 814.118 33.6011C815.867 33.6144 817.615 33.5149 819.351 33.3032C821.802 32.9928 824.042 31.7981 826.072 29.7189C826.647 29.1321 827.145 28.4753 827.555 27.7639L828.088 27.6894L826.072 35.1046C820.03 35.0053 816.665 34.9556 815.979 34.9556L802.163 35.2303L801.509 35.2163Z" fill="white"></path><path d="M834.513 31.7294L834.111 24.8961L834.64 24.7704C835.327 26.3249 836.152 27.8156 837.104 29.2251C838.361 31.0392 840.082 32.4856 842.09 33.4144C843.609 34.1303 845.269 34.4977 846.949 34.4896C849.313 34.4896 851.184 33.7806 852.562 32.3624C853.187 31.7579 853.682 31.034 854.019 30.2341C854.356 29.4342 854.527 28.5748 854.522 27.7076C854.522 25.3522 853.472 23.4733 851.374 22.0706C849.545 20.9475 847.607 20.0118 845.588 19.2777C842.701 18.1388 840.662 17.1784 839.471 16.3963C836.518 14.4879 835.042 12.0162 835.042 8.98124C835.018 7.64544 835.323 6.32409 835.928 5.13174C836.534 3.9394 837.422 2.912 838.517 2.13861C840.444 0.692512 842.868 -0.032053 845.79 -0.0351562C848.124 -0.000431482 850.427 0.501352 852.562 1.44039C853.217 1.76816 853.922 1.98824 854.648 2.09207C855.291 2.01563 855.883 1.7037 856.308 1.21696H856.776L857.379 9.18136L856.827 9.30705C856.349 8.02734 855.651 6.83989 854.765 5.79735C852.398 2.92688 849.537 1.49164 846.182 1.49164C844.337 1.49164 842.876 2.0083 841.8 3.04168C841.214 3.57147 840.748 4.21864 840.431 4.94065C840.114 5.66267 839.954 6.4432 839.962 7.23102C839.96 8.38968 840.341 9.51679 841.047 10.4382C841.671 11.2699 842.963 12.1124 844.924 12.9657C845.139 13.0681 846.164 13.4917 847.992 14.2458C850.253 15.0696 852.442 16.0736 854.54 17.2482C857.627 19.1691 859.172 21.8161 859.175 25.1893C859.175 28.8325 857.58 31.7061 854.391 33.8101C852.116 35.3375 849.432 36.1484 846.688 36.1375C843.251 36.1153 839.874 35.2367 836.866 33.582C835.98 33.1163 835.194 32.484 834.551 31.72" fill="white"></path><path d="M751.34 23.8313L754.057 30.646C754.403 31.3822 754.634 32.1673 754.74 32.9734C754.758 33.2971 754.69 33.6199 754.544 33.9097C754.398 34.1995 754.179 34.4463 753.907 34.6258C753.385 34.9595 752.828 35.2373 752.247 35.4544L763.294 35.4032C762.502 34.7741 761.806 34.0323 761.231 33.2015C760.477 32.0112 759.812 30.7664 759.244 29.4776L750.661 9.03358C749.988 7.38112 749.296 5.68674 748.571 3.95049C747.968 2.47956 747.589 1.48813 747.439 0.966788C747.355 0.734046 747.261 0.617676 747.163 0.617676C747.032 0.628808 746.903 0.663487 746.784 0.720068C746.152 0.975395 745.478 1.11115 744.797 1.12038C744.661 1.11041 744.524 1.1262 744.394 1.16691C744.142 1.36552 743.395 3.22745 742.154 6.7527C741.032 9.39044 740.319 11.0972 740.017 11.873L732.716 28.1649C732.111 29.5174 731.378 30.8095 730.527 32.0238C729.612 33.2285 728.602 34.3586 727.506 35.4032H736.668C736.041 35.127 735.455 34.765 734.928 34.3279C734.649 34.0536 734.43 33.7254 734.284 33.3636C734.137 33.0017 734.067 32.6138 734.077 32.2239C734.166 30.7386 734.514 29.2801 735.106 27.9136L736.977 23.0819L737.912 20.7545L743.599 6.78998C743.716 6.48742 743.852 6.3245 744.001 6.3245C744.151 6.3245 744.305 6.51534 744.469 6.90169L750.409 21.7552L751.34 23.8313Z" fill="white"></path><path d="M605.544 15.4051C606.177 12.0543 607.965 9.02839 610.6 6.84951C613.235 4.67063 616.552 3.47549 619.977 3.47021C623.403 3.47568 626.718 4.67102 629.353 6.84996C631.987 9.0289 633.774 12.0547 634.406 15.4051H637.212C636.572 11.3184 634.486 7.5938 631.33 4.90274C628.175 2.21168 624.156 0.731327 620.001 0.728516C615.845 0.731327 611.827 2.21168 608.671 4.90274C605.515 7.5938 603.43 11.3184 602.789 15.4051H605.544Z" fill="white"></path><path d="M634.383 20.7856C633.751 24.1361 631.964 27.1619 629.329 29.3409C626.695 31.5198 623.379 32.7152 619.954 32.7206C616.533 32.709 613.222 31.5111 610.592 29.3328C607.962 27.1545 606.177 24.1322 605.544 20.7856H602.738C603.377 24.8727 605.463 28.5979 608.619 31.2892C611.775 33.9804 615.794 35.4605 619.95 35.4623C624.105 35.4606 628.123 33.9812 631.279 31.2909C634.435 28.6006 636.521 24.8765 637.161 20.7903L634.383 20.7856Z" fill="white"></path></g><path d="M354.707 380.215H996.39" stroke="#FF8B61" stroke-width="6.85072"></path><path d="M180.065 176.032C172.631 176.032 166.437 174.449 161.481 171.283C156.594 168.117 152.946 163.678 150.537 157.965C148.128 152.252 146.924 145.576 146.924 137.936C146.924 130.296 148.128 123.654 150.537 118.01C152.946 112.366 156.629 107.996 161.584 104.899C166.54 101.732 172.734 100.149 180.168 100.149C187.257 100.149 193.245 101.732 198.132 104.899C203.088 107.996 206.839 112.401 209.385 118.114C211.932 123.757 213.205 130.399 213.205 138.039C213.205 145.679 211.898 152.356 209.282 158.068C206.735 163.712 202.984 168.117 198.029 171.283C193.142 174.449 187.154 176.032 180.065 176.032ZM180.065 170.148C183.781 170.148 186.879 169.425 189.356 167.98C191.903 166.534 193.968 164.435 195.551 161.682C197.134 158.929 198.27 155.556 198.958 151.564C199.715 147.572 200.094 143.064 200.094 138.039C200.094 133.015 199.715 128.541 198.958 124.618C198.27 120.626 197.134 117.253 195.551 114.5C194.037 111.678 192.006 109.579 189.46 108.202C186.982 106.757 183.884 106.034 180.168 106.034C176.52 106.034 173.388 106.757 170.773 108.202C168.226 109.579 166.161 111.678 164.578 114.5C162.995 117.253 161.825 120.626 161.068 124.618C160.311 128.541 159.932 133.015 159.932 138.039C159.932 143.064 160.311 147.572 161.068 151.564C161.825 155.556 162.995 158.929 164.578 161.682C166.161 164.435 168.226 166.534 170.773 167.98C173.388 169.425 176.485 170.148 180.065 170.148ZM236.164 175V170.354H237.919C239.295 170.354 240.397 170.148 241.223 169.735C242.117 169.322 242.909 168.565 243.597 167.463C244.354 166.293 245.111 164.607 245.869 162.404L268.685 101.285H278.39L301.206 164.366C301.826 165.949 302.445 167.188 303.065 168.083C303.753 168.909 304.545 169.494 305.439 169.838C306.403 170.182 307.504 170.354 308.743 170.354H310.188V175H280.248V170.354H283.036C284.825 170.354 286.236 169.976 287.269 169.218C288.301 168.461 288.817 167.257 288.817 165.605C288.817 165.192 288.783 164.779 288.714 164.366C288.645 163.953 288.542 163.506 288.404 163.024C288.267 162.542 288.129 162.095 287.991 161.682L283.965 150.428H257.328L253.715 160.753C253.508 161.303 253.336 161.888 253.199 162.508C253.061 163.058 252.923 163.609 252.786 164.16C252.717 164.641 252.683 165.123 252.683 165.605C252.683 167.188 253.233 168.392 254.334 169.218C255.436 169.976 256.95 170.354 258.877 170.354H261.871V175H236.164ZM259.393 144.957H282.003L275.912 127.199C275.293 125.272 274.639 123.379 273.95 121.521C273.331 119.662 272.78 117.873 272.299 116.152C271.817 114.362 271.369 112.642 270.956 110.99C270.681 112.229 270.371 113.468 270.027 114.707C269.683 115.877 269.305 117.081 268.892 118.32C268.547 119.559 268.134 120.867 267.653 122.243C267.24 123.551 266.723 124.928 266.104 126.373L259.393 144.957ZM355.282 176.032C351.565 176.032 348.33 175.688 345.577 175C342.893 174.243 340.656 173.21 338.866 171.903C337.077 170.526 335.769 168.943 334.943 167.154C334.117 165.364 333.704 163.471 333.704 161.475C333.704 159.823 334.048 158.447 334.737 157.346C335.494 156.175 336.526 155.315 337.834 154.765C339.142 154.145 340.622 153.835 342.273 153.835C342.411 157.001 342.996 159.858 344.029 162.404C345.061 164.951 346.575 166.982 348.571 168.496C350.636 169.941 353.217 170.664 356.314 170.664C360.788 170.664 364.264 169.563 366.742 167.36C369.288 165.158 370.562 162.095 370.562 158.172C370.562 155.694 370.011 153.594 368.91 151.874C367.809 150.084 366.088 148.467 363.748 147.021C361.408 145.507 358.207 143.924 354.146 142.272C350.911 140.964 348.055 139.553 345.577 138.039C343.168 136.456 341.172 134.77 339.589 132.98C338.075 131.191 336.939 129.195 336.182 126.992C335.494 124.721 335.15 122.243 335.15 119.559C335.15 115.498 336.148 112.057 338.144 109.235C340.14 106.344 342.893 104.141 346.403 102.627C349.982 101.044 354.009 100.253 358.482 100.253C362.887 100.253 366.57 100.803 369.529 101.904C372.489 103.006 374.726 104.451 376.24 106.241C377.754 107.961 378.511 109.854 378.511 111.919C378.511 114.19 377.686 115.98 376.034 117.288C374.382 118.526 372.076 119.146 369.116 119.146C369.116 117.081 368.738 115.016 367.981 112.951C367.292 110.887 366.122 109.166 364.47 107.789C362.819 106.413 360.547 105.724 357.657 105.724C355.248 105.724 353.148 106.172 351.359 107.067C349.569 107.961 348.193 109.235 347.229 110.887C346.265 112.538 345.784 114.534 345.784 116.875C345.784 119.421 346.265 121.624 347.229 123.482C348.193 125.272 349.845 126.924 352.185 128.438C354.594 129.952 357.863 131.569 361.993 133.29C366.26 135.011 369.839 136.869 372.73 138.865C375.621 140.861 377.789 143.133 379.234 145.679C380.68 148.226 381.402 151.254 381.402 154.765C381.402 159.17 380.335 162.955 378.202 166.121C376.068 169.287 373.04 171.731 369.116 173.451C365.193 175.172 360.582 176.032 355.282 176.032ZM409.346 175V170.354H411.514C412.96 170.354 414.233 170.182 415.334 169.838C416.504 169.494 417.433 168.805 418.122 167.773C418.81 166.741 419.154 165.192 419.154 163.127V113.158C419.154 111.024 418.81 109.476 418.122 108.512C417.433 107.48 416.504 106.791 415.334 106.447C414.233 106.103 412.96 105.931 411.514 105.931H409.346V101.285H440.938V105.931H438.77C437.394 105.931 436.12 106.103 434.95 106.447C433.78 106.791 432.851 107.48 432.163 108.512C431.543 109.476 431.234 111.024 431.234 113.158V163.127C431.234 165.192 431.543 166.741 432.163 167.773C432.851 168.805 433.78 169.494 434.95 169.838C436.12 170.182 437.394 170.354 438.77 170.354H440.938V175H409.346ZM489.666 176.032C485.949 176.032 482.715 175.688 479.961 175C477.277 174.243 475.04 173.21 473.251 171.903C471.461 170.526 470.153 168.943 469.327 167.154C468.502 165.364 468.089 163.471 468.089 161.475C468.089 159.823 468.433 158.447 469.121 157.346C469.878 156.175 470.911 155.315 472.218 154.765C473.526 154.145 475.006 153.835 476.658 153.835C476.795 157.001 477.38 159.858 478.413 162.404C479.445 164.951 480.959 166.982 482.955 168.496C485.02 169.941 487.601 170.664 490.699 170.664C495.172 170.664 498.648 169.563 501.126 167.36C503.673 165.158 504.946 162.095 504.946 158.172C504.946 155.694 504.395 153.594 503.294 151.874C502.193 150.084 500.472 148.467 498.132 147.021C495.792 145.507 492.591 143.924 488.531 142.272C485.296 140.964 482.439 139.553 479.961 138.039C477.552 136.456 475.556 134.77 473.973 132.98C472.459 131.191 471.324 129.195 470.566 126.992C469.878 124.721 469.534 122.243 469.534 119.559C469.534 115.498 470.532 112.057 472.528 109.235C474.524 106.344 477.277 104.141 480.787 102.627C484.366 101.044 488.393 100.253 492.867 100.253C497.272 100.253 500.954 100.803 503.914 101.904C506.873 103.006 509.11 104.451 510.624 106.241C512.139 107.961 512.896 109.854 512.896 111.919C512.896 114.19 512.07 115.98 510.418 117.288C508.766 118.526 506.46 119.146 503.501 119.146C503.501 117.081 503.122 115.016 502.365 112.951C501.677 110.887 500.507 109.166 498.855 107.789C497.203 106.413 494.932 105.724 492.041 105.724C489.632 105.724 487.533 106.172 485.743 107.067C483.953 107.961 482.577 109.235 481.613 110.887C480.65 112.538 480.168 114.534 480.168 116.875C480.168 119.421 480.65 121.624 481.613 123.482C482.577 125.272 484.229 126.924 486.569 128.438C488.978 129.952 492.247 131.569 496.377 133.29C500.644 135.011 504.223 136.869 507.114 138.865C510.005 140.861 512.173 143.133 513.618 145.679C515.064 148.226 515.786 151.254 515.786 154.765C515.786 159.17 514.72 162.955 512.586 166.121C510.452 169.287 507.424 171.731 503.501 173.451C499.577 175.172 494.966 176.032 489.666 176.032ZM601.625 175V170.354H604.516C605.893 170.354 607.166 170.216 608.336 169.941C609.506 169.597 610.435 168.943 611.123 167.98C611.812 166.947 612.156 165.467 612.156 163.54V106.757H602.658C600.662 106.757 599.079 107.135 597.908 107.893C596.738 108.581 595.878 109.544 595.327 110.783C594.777 112.022 594.398 113.399 594.192 114.913L593.572 119.869H587.791L588.307 101.285H648.187L648.704 119.869H642.922L642.303 114.913C642.165 113.399 641.786 112.022 641.167 110.783C640.616 109.544 639.756 108.581 638.586 107.893C637.416 107.135 635.798 106.757 633.733 106.757H624.235V163.127C624.235 165.192 624.545 166.741 625.164 167.773C625.853 168.805 626.782 169.494 627.952 169.838C629.122 170.182 630.395 170.354 631.772 170.354H634.663V175H601.625ZM673.174 175V170.354H675.343C676.788 170.354 678.061 170.182 679.163 169.838C680.333 169.494 681.262 168.805 681.95 167.773C682.638 166.741 682.982 165.192 682.982 163.127V112.745C682.982 110.749 682.604 109.269 681.847 108.306C681.159 107.342 680.229 106.722 679.059 106.447C677.958 106.103 676.719 105.931 675.343 105.931H673.174V101.285H704.767V105.931H702.598C701.222 105.931 699.949 106.103 698.779 106.447C697.608 106.791 696.679 107.48 695.991 108.512C695.303 109.476 694.959 111.024 694.959 113.158V133.806H726.757V113.158C726.757 111.024 726.413 109.476 725.725 108.512C725.036 107.48 724.107 106.791 722.937 106.447C721.836 106.103 720.563 105.931 719.117 105.931H716.949V101.285H748.541V105.931H746.373C744.997 105.931 743.723 106.103 742.553 106.447C741.383 106.791 740.454 107.48 739.766 108.512C739.077 109.476 738.733 111.024 738.733 113.158V163.643C738.733 165.571 739.077 167.016 739.766 167.98C740.523 168.943 741.452 169.597 742.553 169.941C743.723 170.216 744.997 170.354 746.373 170.354H748.541V175H716.949V170.354H719.117C720.563 170.354 721.836 170.182 722.937 169.838C724.107 169.494 725.036 168.805 725.725 167.773C726.413 166.741 726.757 165.192 726.757 163.127V139.278H694.959V163.127C694.959 165.192 695.303 166.741 695.991 167.773C696.679 168.805 697.608 169.494 698.779 169.838C699.949 170.182 701.222 170.354 702.598 170.354H704.767V175H673.174ZM774.848 175V170.354H777.016C778.393 170.354 779.631 170.216 780.733 169.941C781.903 169.597 782.832 168.943 783.52 167.98C784.277 167.016 784.656 165.571 784.656 163.643V113.158C784.656 111.024 784.312 109.476 783.623 108.512C782.935 107.48 782.006 106.791 780.836 106.447C779.735 106.103 778.461 105.931 777.016 105.931H774.848V101.285H828.327L828.844 119.559H822.959L822.443 115.016C822.305 113.502 821.926 112.125 821.307 110.887C820.687 109.648 819.793 108.65 818.623 107.893C817.452 107.135 815.938 106.757 814.08 106.757H796.735V133.806H821.513V139.175H796.735V169.528H816.867C818.795 169.528 820.378 169.15 821.617 168.392C822.855 167.635 823.785 166.637 824.404 165.398C825.092 164.16 825.54 162.783 825.746 161.269L826.469 156.726H832.354L831.631 175H774.848ZM859.079 175V170.354H861.247C862.624 170.354 863.863 170.216 864.964 169.941C866.134 169.597 867.063 168.943 867.751 167.98C868.509 167.016 868.887 165.571 868.887 163.643V112.745C868.887 110.749 868.509 109.269 867.751 108.306C867.063 107.342 866.134 106.722 864.964 106.447C863.863 106.103 862.624 105.931 861.247 105.931H859.079V101.285H888.4C894.526 101.285 899.584 102.042 903.576 103.556C907.568 105.002 910.528 107.17 912.455 110.061C914.451 112.951 915.449 116.599 915.449 121.004C915.449 124.652 914.692 127.749 913.178 130.296C911.733 132.774 909.874 134.804 907.603 136.387C905.332 137.902 902.991 139.106 900.582 140.001L914.21 161.991C915.105 163.437 915.966 164.676 916.791 165.708C917.617 166.741 918.443 167.601 919.269 168.289C920.095 168.978 920.956 169.494 921.85 169.838C922.814 170.182 923.812 170.354 924.844 170.354H925.257V175H923.192C920.026 175 917.342 174.897 915.14 174.69C913.006 174.415 911.216 173.968 909.771 173.348C908.326 172.66 907.018 171.696 905.848 170.457C904.747 169.218 903.611 167.635 902.441 165.708L889.019 142.582H880.863V163.643C880.863 165.571 881.207 167.016 881.896 167.98C882.653 168.943 883.582 169.597 884.683 169.941C885.853 170.216 887.127 170.354 888.503 170.354H890.671V175H859.079ZM887.677 137.42C891.532 137.42 894.526 136.835 896.659 135.665C898.793 134.495 900.307 132.74 901.202 130.399C902.165 128.059 902.647 125.134 902.647 121.624C902.647 117.976 902.131 115.051 901.099 112.848C900.135 110.646 898.552 109.063 896.35 108.099C894.147 107.067 891.222 106.55 887.574 106.55H880.863V137.42H887.677ZM943.833 175V170.354H945.588C946.965 170.354 948.066 170.148 948.892 169.735C949.786 169.322 950.578 168.565 951.266 167.463C952.023 166.293 952.781 164.607 953.538 162.404L976.354 101.285H986.059L1008.88 164.366C1009.49 165.949 1010.11 167.188 1010.73 168.083C1011.42 168.909 1012.21 169.494 1013.11 169.838C1014.07 170.182 1015.17 170.354 1016.41 170.354H1017.86V175H987.917V170.354H990.705C992.494 170.354 993.905 169.976 994.938 169.218C995.97 168.461 996.486 167.257 996.486 165.605C996.486 165.192 996.452 164.779 996.383 164.366C996.314 163.953 996.211 163.506 996.073 163.024C995.936 162.542 995.798 162.095 995.66 161.682L991.634 150.428H964.998L961.384 160.753C961.178 161.303 961.005 161.888 960.868 162.508C960.73 163.058 960.593 163.609 960.455 164.16C960.386 164.641 960.352 165.123 960.352 165.605C960.352 167.188 960.902 168.392 962.003 169.218C963.105 169.976 964.619 170.354 966.546 170.354H969.54V175H943.833ZM967.062 144.957H989.672L983.581 127.199C982.962 125.272 982.308 123.379 981.62 121.521C981 119.662 980.449 117.873 979.968 116.152C979.486 114.362 979.038 112.642 978.625 110.99C978.35 112.229 978.04 113.468 977.696 114.707C977.352 115.877 976.974 117.081 976.561 118.32C976.217 119.559 975.804 120.867 975.322 122.243C974.909 123.551 974.393 124.928 973.773 126.373L967.062 144.957ZM1040.55 175V170.354H1042.72C1044.16 170.354 1045.43 170.182 1046.54 169.838C1047.71 169.494 1048.63 168.805 1049.32 167.773C1050.01 166.741 1050.36 165.192 1050.36 163.127V112.745C1050.36 110.749 1049.98 109.269 1049.22 108.306C1048.53 107.342 1047.6 106.722 1046.43 106.447C1045.33 106.103 1044.09 105.931 1042.72 105.931H1040.55V101.285H1070.28C1079.23 101.285 1085.84 103.212 1090.1 107.067C1094.37 110.921 1096.5 116.221 1096.5 122.966C1096.5 126.063 1095.99 129.023 1094.96 131.845C1093.99 134.598 1092.38 137.076 1090.1 139.278C1087.9 141.481 1084.98 143.236 1081.33 144.544C1077.68 145.782 1073.24 146.402 1068.01 146.402H1062.33V163.643C1062.33 165.571 1062.68 167.016 1063.36 167.98C1064.12 168.943 1065.08 169.597 1066.25 169.941C1067.42 170.216 1068.66 170.354 1069.97 170.354H1074.2V175H1040.55ZM1066.98 141.24C1069.94 141.24 1072.48 140.93 1074.62 140.311C1076.75 139.622 1078.47 138.59 1079.78 137.213C1081.09 135.768 1082.05 133.91 1082.67 131.638C1083.29 129.367 1083.6 126.614 1083.6 123.379C1083.6 119.525 1083.12 116.358 1082.15 113.881C1081.19 111.403 1079.61 109.579 1077.4 108.409C1075.2 107.17 1072.24 106.55 1068.53 106.55H1062.33V141.24H1066.98ZM1135.87 175V170.354H1138.97C1140.34 170.354 1141.62 170.216 1142.79 169.941C1143.96 169.666 1144.89 169.046 1145.57 168.083C1146.33 167.05 1146.71 165.571 1146.71 163.643V145.473L1127.61 111.403C1126.92 110.095 1126.23 109.063 1125.54 108.306C1124.93 107.48 1124.2 106.895 1123.38 106.55C1122.55 106.137 1121.52 105.931 1120.28 105.931H1118.94V101.285H1149.08V105.931H1145.78C1143.92 105.931 1142.61 106.309 1141.86 107.067C1141.17 107.755 1140.82 108.615 1140.82 109.648C1140.82 110.542 1141 111.506 1141.34 112.538C1141.75 113.502 1142.17 114.362 1142.58 115.12L1150.22 129.367C1150.84 130.399 1151.39 131.432 1151.87 132.464C1152.35 133.497 1152.8 134.495 1153.21 135.458C1153.63 136.422 1154.01 137.351 1154.35 138.246C1154.69 139.141 1155 140.001 1155.28 140.827C1155.9 139.313 1156.76 137.489 1157.86 135.355C1158.96 133.221 1160.1 131.053 1161.27 128.851L1167.67 116.771C1168.42 115.532 1168.91 114.397 1169.11 113.364C1169.39 112.263 1169.53 111.334 1169.53 110.577C1169.53 108.994 1168.98 107.824 1167.87 107.067C1166.77 106.309 1165.19 105.931 1163.13 105.931H1160.34V101.285H1186.04V105.931H1184.6C1183.57 105.931 1182.64 106.172 1181.81 106.654C1180.99 107.135 1180.13 107.961 1179.23 109.131C1178.4 110.302 1177.41 111.919 1176.24 113.984L1158.79 145.576V163.23C1158.79 165.295 1159.13 166.844 1159.82 167.876C1160.51 168.909 1161.44 169.597 1162.61 169.941C1163.85 170.216 1165.16 170.354 1166.53 170.354H1169.63V175H1135.87ZM450.009 311.032C442.851 311.032 436.828 309.449 431.941 306.283C427.123 303.117 423.475 298.712 420.998 293.068C418.589 287.356 417.384 280.679 417.384 273.039C417.384 265.606 418.657 259.067 421.204 253.423C423.82 247.711 427.64 243.271 432.664 240.105C437.688 236.87 443.883 235.253 451.248 235.253C456.134 235.253 460.161 235.769 463.327 236.801C466.562 237.834 468.936 239.245 470.451 241.034C472.034 242.755 472.825 244.716 472.825 246.919C472.825 249.19 471.896 251.049 470.038 252.494C468.179 253.939 465.77 254.662 462.811 254.662C462.811 252.46 462.432 250.326 461.675 248.261C460.918 246.196 459.679 244.476 457.958 243.099C456.238 241.722 453.898 241.034 450.938 241.034C445.982 241.034 441.99 242.273 438.962 244.751C436.002 247.229 433.834 250.877 432.458 255.695C431.15 260.444 430.496 266.225 430.496 273.039C430.496 279.303 431.219 284.74 432.664 289.352C434.109 293.963 436.381 297.542 439.478 300.089C442.644 302.567 446.774 303.805 451.867 303.805C455.24 303.805 458.096 303.392 460.436 302.567C462.776 301.672 464.772 300.536 466.424 299.16C468.076 297.714 469.487 296.234 470.657 294.72C471.208 295.133 471.655 295.684 471.999 296.372C472.343 297.06 472.516 297.886 472.516 298.85C472.516 300.226 472.068 301.637 471.173 303.083C470.347 304.459 469.04 305.767 467.25 307.006C465.461 308.176 463.12 309.14 460.23 309.897C457.408 310.654 454.001 311.032 450.009 311.032ZM499.246 310V305.354H501.414C502.79 305.354 504.029 305.216 505.13 304.941C506.3 304.597 507.23 303.943 507.918 302.98C508.675 302.016 509.054 300.571 509.054 298.643V248.158C509.054 246.024 508.709 244.476 508.021 243.512C507.333 242.48 506.404 241.791 505.234 241.447C504.132 241.103 502.859 240.931 501.414 240.931H499.246V236.285H552.725L553.241 254.559H547.356L546.84 250.016C546.703 248.502 546.324 247.125 545.705 245.887C545.085 244.648 544.19 243.65 543.02 242.893C541.85 242.135 540.336 241.757 538.478 241.757H521.133V268.806H545.911V274.175H521.133V304.528H541.265C543.192 304.528 544.775 304.15 546.014 303.392C547.253 302.635 548.182 301.637 548.802 300.398C549.49 299.16 549.938 297.783 550.144 296.269L550.867 291.726H556.752L556.029 310H499.246ZM583.477 310V305.354H585.645C587.09 305.354 588.364 305.182 589.465 304.838C590.635 304.494 591.564 303.805 592.252 302.773C592.941 301.741 593.285 300.192 593.285 298.127V247.745C593.285 245.749 592.906 244.269 592.149 243.306C591.461 242.342 590.532 241.722 589.362 241.447C588.26 241.103 587.021 240.931 585.645 240.931H583.477V236.285H603.506L640.363 291.829V247.745C640.363 245.749 639.985 244.269 639.228 243.306C638.539 242.342 637.61 241.722 636.44 241.447C635.339 241.103 634.1 240.931 632.723 240.931H630.555V236.285H656.779V240.931H654.611C653.234 240.931 651.961 241.103 650.791 241.447C649.621 241.791 648.691 242.48 648.003 243.512C647.315 244.476 646.971 246.024 646.971 248.158V310H639.124L599.996 251.255V298.127C599.996 300.192 600.305 301.741 600.925 302.773C601.613 303.805 602.542 304.494 603.712 304.838C604.882 305.182 606.156 305.354 607.532 305.354H609.7V310H583.477ZM694.001 310V305.354H696.892C698.268 305.354 699.541 305.216 700.712 304.941C701.882 304.597 702.811 303.943 703.499 302.98C704.187 301.947 704.531 300.467 704.531 298.54V241.757H695.033C693.037 241.757 691.454 242.135 690.284 242.893C689.114 243.581 688.254 244.544 687.703 245.783C687.152 247.022 686.774 248.399 686.567 249.913L685.948 254.869H680.166L680.683 236.285H740.563L741.079 254.869H735.298L734.678 249.913C734.541 248.399 734.162 247.022 733.543 245.783C732.992 244.544 732.132 243.581 730.961 242.893C729.791 242.135 728.174 241.757 726.109 241.757H716.611V298.127C716.611 300.192 716.921 301.741 717.54 302.773C718.228 303.805 719.157 304.494 720.328 304.838C721.498 305.182 722.771 305.354 724.148 305.354H727.038V310H694.001ZM765.55 310V305.354H767.718C769.095 305.354 770.334 305.216 771.435 304.941C772.605 304.597 773.534 303.943 774.222 302.98C774.98 302.016 775.358 300.571 775.358 298.643V248.158C775.358 246.024 775.014 244.476 774.326 243.512C773.637 242.48 772.708 241.791 771.538 241.447C770.437 241.103 769.164 240.931 767.718 240.931H765.55V236.285H819.03L819.546 254.559H813.661L813.145 250.016C813.007 248.502 812.629 247.125 812.009 245.887C811.39 244.648 810.495 243.65 809.325 242.893C808.155 242.135 806.64 241.757 804.782 241.757H787.437V268.806H812.216V274.175H787.437V304.528H807.57C809.497 304.528 811.08 304.15 812.319 303.392C813.558 302.635 814.487 301.637 815.106 300.398C815.795 299.16 816.242 297.783 816.448 296.269L817.171 291.726H823.056L822.333 310H765.55ZM849.781 310V305.354H851.949C853.326 305.354 854.565 305.216 855.666 304.941C856.836 304.597 857.765 303.943 858.454 302.98C859.211 302.016 859.589 300.571 859.589 298.643V247.745C859.589 245.749 859.211 244.269 858.454 243.306C857.765 242.342 856.836 241.722 855.666 241.447C854.565 241.103 853.326 240.931 851.949 240.931H849.781V236.285H879.102C885.228 236.285 890.287 237.042 894.279 238.556C898.271 240.002 901.23 242.17 903.157 245.061C905.153 247.951 906.151 251.599 906.151 256.004C906.151 259.652 905.394 262.749 903.88 265.296C902.435 267.774 900.576 269.804 898.305 271.387C896.034 272.902 893.694 274.106 891.285 275.001L904.913 296.991C905.807 298.437 906.668 299.676 907.494 300.708C908.32 301.741 909.145 302.601 909.971 303.289C910.797 303.978 911.658 304.494 912.552 304.838C913.516 305.182 914.514 305.354 915.547 305.354H915.959V310H913.895C910.729 310 908.044 309.897 905.842 309.69C903.708 309.415 901.919 308.968 900.473 308.348C899.028 307.66 897.72 306.696 896.55 305.457C895.449 304.218 894.313 302.635 893.143 300.708L879.721 277.582H871.565V298.643C871.565 300.571 871.909 302.016 872.598 302.98C873.355 303.943 874.284 304.597 875.385 304.941C876.555 305.216 877.829 305.354 879.205 305.354H881.373V310H849.781ZM878.379 272.42C882.234 272.42 885.228 271.835 887.361 270.665C889.495 269.495 891.009 267.74 891.904 265.399C892.868 263.059 893.349 260.134 893.349 256.624C893.349 252.976 892.833 250.051 891.801 247.848C890.837 245.646 889.254 244.063 887.052 243.099C884.849 242.067 881.924 241.55 878.276 241.55H871.565V272.42H878.379Z" fill="white"></path><defs><linearGradient id="paint0_linear_1328_2" x1="564.632" y1="18.2892" x2="620.583" y2="18.2892" gradientUnits="userSpaceOnUse"><stop stop-color="white" stop-opacity="0"></stop><stop offset="1" stop-color="#EF9F80"></stop></linearGradient><linearGradient id="paint1_linear_1328_2" x1="675.589" y1="17.7601" x2="619.638" y2="17.7601" gradientUnits="userSpaceOnUse"><stop stop-color="white" stop-opacity="0"></stop><stop offset="1" stop-color="#EF9F80"></stop></linearGradient><clipPath id="clip0_1328_2"><rect width="391.408" height="36.41" fill="white" transform="translate(467.743)"></rect></clipPath></defs></svg>